<svg xmlns="http://www.w3.org/2000/svg" aria-hidden="true" width="16" height="16" viewBox="0 0 16 16" data-view-component="true" class="octicon octicon-repo UnderlineNav-octicon" fill="currentColor">
    <path stroke-width="2.5" d="M2 2.5A2.5 2.5 0 0 1 4.5 0h8.8a.8.8 0 0 1 .7.8v12.4a.8.8 0 0 1-.8.8h-2.4a.8.8 0 0 1 0-1.5h1.7v-2h-8a1 1 0 0 0-.7 1.7.8.8 0 1 1-1 1 2.5 2.5 0 0 1-.8-1.7Zm10.5-1h-8a1 1 0 0 0-1 1v6.7a2.5 2.5 0 0 1 1-.2h8ZM5 12.3a.3.3 0 0 1 .3-.3h3.5a.3.3 0 0 1 .2.3v3.2a.3.3 0 0 1-.4.2l-1.4-1a.2.2 0 0 0-.4 0l-1.4 1a.3.3 0 0 1-.4-.2Z"/>
</svg>